SplineFontDB: 3.0
FontName: CodifiedMaritimeSignalFlagsBW-Regular
FullName: CodifiedMaritimeSignalFlagsBW
FamilyName: CodifiedMaritimeSignalFlagsBW
Weight: Regular
Copyright: Copyright (c) 2017, Guillermo Robles, SIL Open Font License
UComments: "2017-8-8: Created with FontForge (http://fontforge.org)"
Version: 0.1
ItalicAngle: 0
UnderlinePosition: -51
UnderlineWidth: 25
Ascent: 410
Descent: 102
InvalidEm: 0
LayerCount: 2
Layer: 0 0 "Back" 1
Layer: 1 0 "Fore" 0
XUID: [1021 514 -681402365 12256942]
StyleMap: 0x0000
FSType: 0
OS2Version: 0
OS2_WeightWidthSlopeOnly: 0
OS2_UseTypoMetrics: 1
CreationTime: 1502190304
ModificationTime: 1502207507
OS2TypoAscent: 0
OS2TypoAOffset: 1
OS2TypoDescent: 0
OS2TypoDOffset: 1
OS2TypoLinegap: 46
OS2WinAscent: 0
OS2WinAOffset: 1
OS2WinDescent: 0
OS2WinDOffset: 1
HheadAscent: 0
HheadAOffset: 1
HheadDescent: 0
HheadDOffset: 1
OS2Vendor: 'PfEd'
MarkAttachClasses: 1
DEI: 91125
Encoding: ISO8859-1
UnicodeInterp: none
NameList: AGL For New Fonts
DisplaySize: -48
AntiAlias: 1
FitToEm: 0
WinInfo: 0 27 10
BeginPrivate: 0
EndPrivate
BeginChars: 256 54

StartChar: A
Encoding: 65 65 0
Width: 512
VWidth: 0
Flags: H
LayerCount: 2
Fore
SplineSet
52 404 m 1
 460 404 l 1
 360 200 l 1
 460 -4 l 1
 52 -4 l 1
 52 404 l 1
56 400 m 1
 56 0 l 1
 256 0 l 5
 256 400 l 1
 56 400 l 1
EndSplineSet
Validated: 1
EndChar

StartChar: B
Encoding: 66 66 1
Width: 512
VWidth: 0
Flags: HW
LayerCount: 2
Fore
SplineSet
52 404 m 1
 460 404 l 1
 360 200 l 1
 460 -4 l 1
 52 -4 l 1
 52 404 l 1
EndSplineSet
Validated: 1
EndChar

StartChar: C
Encoding: 67 67 2
Width: 512
VWidth: 0
Flags: HW
LayerCount: 2
Fore
SplineSet
52 404 m 1
 460 404 l 1
 460 -4 l 1
 52 -4 l 1
 52 404 l 1
56 160 m 1
 56 80 l 1
 456 80 l 1
 456 160 l 1
 56 160 l 1
56 240 m 1
 456 240 l 1
 456 320 l 1
 56 320 l 1
 56 240 l 1
EndSplineSet
Validated: 1
EndChar

StartChar: D
Encoding: 68 68 3
Width: 512
VWidth: 0
Flags: HW
LayerCount: 2
Fore
SplineSet
52 404 m 1
 460 404 l 1
 460 -4 l 1
 52 -4 l 1
 52 404 l 1
56 320 m 1
 56 240 56 160 56 80 c 1
 189 80 323 80 456 80 c 1
 456 320 l 1
 323 320 189 320 56 320 c 1
EndSplineSet
Validated: 1
EndChar

StartChar: E
Encoding: 69 69 4
Width: 512
VWidth: 0
Flags: HW
LayerCount: 2
Fore
SplineSet
52 404 m 1
 460 404 l 1
 460 -4 l 1
 52 -4 l 1
 52 404 l 1
56 400 m 1
 56 200 l 1
 456 200 l 1
 456 400 l 1
 56 400 l 1
EndSplineSet
Validated: 1
EndChar

StartChar: F
Encoding: 70 70 5
Width: 512
VWidth: 0
Flags: HW
LayerCount: 2
Fore
SplineSet
256 400 m 1
 456 200 l 1
 256 0 l 1
 56 200 l 1
 256 400 l 1
52 404 m 1
 460 404 l 1
 460 -4 l 1
 52 -4 l 1
 52 404 l 1
56 400 m 1
 56 200 l 1
 56 0 l 1
 256 0 l 1
 456 0 l 1
 456 200 l 1
 456 400 l 1
 256 400 l 1
 56 400 l 1
EndSplineSet
Validated: 5
EndChar

StartChar: G
Encoding: 71 71 6
Width: 512
VWidth: 0
Flags: HW
LayerCount: 2
Fore
SplineSet
122 400 m 1
 122 0 l 1
 188 0 l 1
 188 400 l 1
 122 400 l 1
52 404 m 1
 460 404 l 1
 460 -4 l 1
 52 -4 l 1
 52 404 l 1
256 0 m 1
 324 0 l 1
 324 400 l 1
 256 400 l 1
 256 0 l 1
390 0 m 1
 456 0 l 1
 456 400 l 1
 390 400 l 1
 390 0 l 1
EndSplineSet
Validated: 1
EndChar

StartChar: H
Encoding: 72 72 7
Width: 512
VWidth: 0
Flags: HW
LayerCount: 2
Fore
SplineSet
52 404 m 1
 460 404 l 5
 460 -4 l 5
 52 -4 l 1
 52 404 l 1
56 400 m 1
 56 0 l 1
 256 0 l 1
 256 400 l 1
 56 400 l 1
EndSplineSet
Validated: 1
EndChar

StartChar: I
Encoding: 73 73 8
Width: 512
VWidth: 0
Flags: HW
HStem: -4 4<56 456> 400 4<56 456>
VStem: 52 4<0 400> 456 4<0 400>
LayerCount: 2
Fore
SplineSet
136 200 m 0
 136 267 189 320 256 320 c 0
 323 320 376 267 376 200 c 0
 376 133 323 80 256 80 c 0
 189 80 136 133 136 200 c 0
52 404 m 1
 460 404 l 1
 460 -4 l 1
 52 -4 l 1
 52 404 l 1
56 400 m 1
 56 320 l 1
 56 280 l 1
 56 120 l 1
 56 80 l 1
 56 0 l 1
 136 0 l 1
 176 0 l 1
 336 0 l 1
 376 0 l 1
 456 0 l 1
 456 80 l 1
 456 120 l 1
 456 280 l 1
 456 320 l 1
 456 400 l 1
 376 400 l 1
 336 400 l 1
 176 400 l 1
 136 400 l 1
 56 400 l 1
EndSplineSet
Validated: 1
EndChar

StartChar: J
Encoding: 74 74 9
Width: 512
VWidth: 0
Flags: HW
LayerCount: 2
Fore
SplineSet
52 404 m 1
 460 404 l 1
 460 -4 l 1
 52 -4 l 1
 52 404 l 1
56 267 m 1
 56 133 l 1
 456 133 l 1
 456 267 l 1
 323 267 189 267 56 267 c 1
EndSplineSet
Validated: 1
EndChar

StartChar: K
Encoding: 75 75 10
Width: 512
VWidth: 0
Flags: HW
HStem: -4 4<256 456> 400 4<256 456>
VStem: 52 204<0 400> 456 4<0 400>
LayerCount: 2
Fore
SplineSet
52 404 m 1
 460 404 l 1
 460 -4 l 1
 256 -4 l 1
 52 -4 l 1
 52 404 l 1
256 0 m 1
 389 0 323 0 456 0 c 1
 456 400 l 1
 256 400 l 1
 256 0 l 1
EndSplineSet
Validated: 1
EndChar

StartChar: L
Encoding: 76 76 11
Width: 512
VWidth: 0
Flags: HW
LayerCount: 2
Fore
SplineSet
52 404 m 1
 460 404 l 1
 460 -4 l 1
 52 -4 l 1
 52 404 l 1
256 0 m 1
 456 0 l 1
 456 200 l 1
 256 200 l 1
 256 400 l 1
 56 400 l 1
 56 200 l 1
 256 200 l 1
 256 0 l 1
EndSplineSet
Validated: 5
EndChar

StartChar: M
Encoding: 77 77 12
Width: 512
VWidth: 0
Flags: HW
LayerCount: 2
Fore
SplineSet
52 404 m 1
 460 404 l 1
 460 -4 l 1
 52 -4 l 1
 52 404 l 1
56 400 m 1
 56 350 l 1
 206 200 l 1
 56 50 l 1
 56 0 l 1
 106 0 l 1
 256 150 l 1
 406 0 l 1
 456 0 l 1
 456 50 l 1
 306 200 l 1
 456 350 l 1
 456 400 l 1
 406 400 l 1
 256 250 l 1
 106 400 l 1
 56 400 l 1
EndSplineSet
Validated: 1
EndChar

StartChar: N
Encoding: 78 78 13
Width: 512
VWidth: 0
Flags: HW
LayerCount: 2
Fore
SplineSet
256 200 m 1
 256 100 l 1
 356 100 l 1
 356 200 l 1
 256 200 l 1
156 300 m 1
 156 200 l 1
 256 200 l 1
 256 300 l 1
 156 300 l 1
52 404 m 1
 460 404 l 1
 460 -4 l 1
 52 -4 l 1
 52 404 l 1
156 300 m 1
 56 300 l 1
 56 200 l 1
 156 200 l 1
 156 100 l 1
 56 100 l 1
 56 0 l 1
 156 0 l 1
 156 100 l 1
 256 100 l 1
 256 0 l 1
 356 0 l 1
 356 100 l 1
 456 100 l 1
 456 200 l 1
 356 200 l 1
 356 300 l 1
 456 300 l 1
 456 400 l 1
 356 400 l 1
 356 300 l 1
 256 300 l 1
 256 400 l 1
 156 400 l 1
 156 300 l 1
EndSplineSet
Validated: 5
EndChar

StartChar: O
Encoding: 79 79 14
Width: 512
VWidth: 0
Flags: HW
HStem: -4 4<56 456> 400 4<56 456>
VStem: 52 4<0 400> 456 4<0 400>
LayerCount: 2
Fore
SplineSet
52 404 m 1
 460 404 l 1
 460 -4 l 1
 52 -4 l 1
 52 404 l 1
56 400 m 5
 56 0 l 1
 456 0 l 5
 56 400 l 5
EndSplineSet
Validated: 1
EndChar

StartChar: P
Encoding: 80 80 15
Width: 512
VWidth: 0
Flags: HW
LayerCount: 2
Fore
SplineSet
52 404 m 1
 460 404 l 1
 460 -4 l 1
 52 -4 l 1
 52 404 l 1
189 267 m 5
 189 133 l 5
 323 133 l 5
 323 267 l 5
 189 267 l 5
EndSplineSet
Validated: 1
EndChar

StartChar: Q
Encoding: 81 81 16
Width: 512
VWidth: 0
Flags: HW
LayerCount: 2
Fore
SplineSet
52 404 m 1
 460 404 l 1
 460 -4 l 1
 52 -4 l 1
 52 404 l 1
EndSplineSet
EndChar

StartChar: R
Encoding: 82 82 17
Width: 512
VWidth: 0
Flags: HW
LayerCount: 2
Fore
SplineSet
52 404 m 1
 460 404 l 1
 460 -4 l 1
 52 -4 l 1
 52 404 l 1
216 240 m 1
 56 240 l 1
 56 160 l 1
 216 160 l 1
 216 0 l 1
 296 0 l 1
 296 160 l 5
 456 160 l 1
 456 240 l 1
 296 240 l 1
 296 400 l 1
 216 400 l 1
 216 240 l 1
EndSplineSet
Validated: 1
EndChar

StartChar: S
Encoding: 83 83 18
Width: 512
VWidth: 0
Flags: HW
LayerCount: 2
Fore
SplineSet
189 267 m 1
 323 267 l 1
 323 133 l 1
 189 133 l 1
 189 267 l 1
52 404 m 1
 460 404 l 1
 460 -4 l 1
 52 -4 l 1
 52 404 l 1
56 400 m 1
 56 0 l 1
 456 0 l 1
 456 400 l 1
 56 400 l 1
EndSplineSet
Validated: 1
EndChar

StartChar: T
Encoding: 84 84 19
Width: 512
VWidth: 0
Flags: HW
HStem: -4 4<56 456> 400 4<56 456>
VStem: 52 4<0 400> 456 4<0 400>
LayerCount: 2
Fore
SplineSet
52 404 m 1
 460 404 l 1
 460 -4 l 1
 52 -4 l 1
 52 404 l 1
189 400 m 1
 189 0 l 5
 323 0 l 1
 323 400 l 1
 189 400 l 1
EndSplineSet
Validated: 1
EndChar

StartChar: U
Encoding: 85 85 20
Width: 512
VWidth: 0
Flags: HW
LayerCount: 2
Fore
SplineSet
52 404 m 1
 460 404 l 1
 460 -4 l 1
 52 -4 l 1
 52 404 l 1
256 200 m 1
 56 200 l 1
 56 0 l 1
 256 0 l 1
 256 200 l 1
 456 200 l 1
 456 400 l 1
 256 400 l 1
 256 200 l 1
EndSplineSet
Validated: 5
EndChar

StartChar: V
Encoding: 86 86 21
Width: 512
VWidth: 0
Flags: HW
LayerCount: 2
Fore
SplineSet
52 404 m 1
 460 404 l 1
 460 -4 l 1
 52 -4 l 1
 52 404 l 1
456 350 m 1
 306 200 l 1
 456 50 l 1
 456 150 456 250 456 350 c 1
406 400 m 1
 306 400 206 400 106 400 c 1
 256 250 l 1
 406 400 l 1
206 200 m 1
 56 350 l 1
 56 250 56 150 56 50 c 1
 206 200 l 1
256 150 m 1
 106 0 l 1
 206 0 306 0 406 0 c 1
 256 150 l 1
EndSplineSet
Validated: 1
EndChar

StartChar: W
Encoding: 87 87 22
Width: 512
VWidth: 0
Flags: HW
LayerCount: 2
Fore
SplineSet
216 240 m 1
 296 240 l 1
 296 160 l 5
 216 160 l 1
 216 240 l 1
52 404 m 1
 460 404 l 1
 460 -4 l 1
 52 -4 l 1
 52 404 l 1
136 320 m 1
 136 80 l 1
 376 80 l 1
 376 320 l 1
 136 320 l 1
EndSplineSet
Validated: 1
EndChar

StartChar: X
Encoding: 88 88 23
Width: 512
VWidth: 0
Flags: HW
LayerCount: 2
Fore
SplineSet
56 400 m 1
 56 240 l 1
 216 240 l 1
 216 400 l 1
 56 400 l 1
52 404 m 1
 460 404 l 1
 460 -4 l 1
 52 -4 l 1
 52 404 l 1
296 0 m 1
 456 0 l 1
 456 160 l 1
 296 160 l 1
 296 0 l 1
216 0 m 1
 216 160 l 1
 56 160 l 1
 56 0 l 1
 216 0 l 1
456 240 m 1
 456 400 l 1
 296 400 l 1
 296 240 l 1
 456 240 l 1
EndSplineSet
Validated: 1
EndChar

StartChar: Y
Encoding: 89 89 24
Width: 512
VWidth: 0
Flags: HW
LayerCount: 2
Fore
SplineSet
56 320 m 1
 136 400 l 1
 56 400 l 1
 56 320 l 1
56 160 m 1
 296 400 l 1
 216 400 l 1
 56 240 l 1
 56 160 l 1
56 80 m 1
 56 0 l 1
 456 400 l 1
 376 400 l 1
 56 80 l 1
52 404 m 1
 460 404 l 1
 460 -4 l 1
 52 -4 l 1
 52 404 l 1
456 160 m 1
 296 0 l 1
 376 0 l 1
 456 80 l 1
 456 160 l 1
456 240 m 1
 456 320 l 1
 136 0 l 1
 216 0 l 1
 456 240 l 1
EndSplineSet
Validated: 1
EndChar

StartChar: Z
Encoding: 90 90 25
Width: 512
VWidth: 0
Flags: HW
LayerCount: 2
Fore
SplineSet
52 404 m 1
 460 404 l 1
 460 -4 l 1
 52 -4 l 1
 52 404 l 1
56 400 m 1
 256 200 l 1
 56 0 l 1
 456 0 l 1
 256 200 l 1
 456 400 l 1
 56 400 l 1
EndSplineSet
Validated: 5
EndChar

StartChar: a
Encoding: 97 97 26
Width: 512
VWidth: 0
Flags: HW
LayerCount: 2
Fore
SplineSet
52 404 m 1
 460 404 l 1
 360 200 l 1
 460 -4 l 1
 52 -4 l 1
 52 404 l 1
56 400 m 1
 56 0 l 1
 256 0 l 5
 256 400 l 1
 56 400 l 1
EndSplineSet
Validated: 1
EndChar

StartChar: b
Encoding: 98 98 27
Width: 512
VWidth: 0
Flags: HW
LayerCount: 2
Fore
SplineSet
52 404 m 1
 460 404 l 1
 360 200 l 1
 460 -4 l 1
 52 -4 l 1
 52 404 l 1
EndSplineSet
Validated: 1
EndChar

StartChar: c
Encoding: 99 99 28
Width: 512
VWidth: 0
Flags: HW
LayerCount: 2
Fore
SplineSet
52 404 m 1
 460 404 l 1
 460 -4 l 1
 52 -4 l 1
 52 404 l 1
56 160 m 1
 56 80 l 1
 456 80 l 1
 456 160 l 1
 56 160 l 1
56 240 m 1
 456 240 l 1
 456 320 l 1
 56 320 l 1
 56 240 l 1
EndSplineSet
Validated: 1
EndChar

StartChar: d
Encoding: 100 100 29
Width: 512
VWidth: 0
Flags: HW
LayerCount: 2
Fore
SplineSet
52 404 m 1
 460 404 l 1
 460 -4 l 1
 52 -4 l 1
 52 404 l 1
56 320 m 1
 56 240 56 160 56 80 c 1
 189 80 323 80 456 80 c 1
 456 320 l 1
 323 320 189 320 56 320 c 1
EndSplineSet
Validated: 1
EndChar

StartChar: e
Encoding: 101 101 30
Width: 512
VWidth: 0
Flags: HW
LayerCount: 2
Fore
SplineSet
52 404 m 1
 460 404 l 1
 460 -4 l 1
 52 -4 l 1
 52 404 l 1
56 400 m 1
 56 200 l 1
 456 200 l 1
 456 400 l 1
 56 400 l 1
EndSplineSet
Validated: 1
EndChar

StartChar: f
Encoding: 102 102 31
Width: 512
VWidth: 0
Flags: HW
LayerCount: 2
Fore
SplineSet
256 400 m 1
 456 200 l 1
 256 0 l 1
 56 200 l 1
 256 400 l 1
52 404 m 1
 460 404 l 1
 460 -4 l 1
 52 -4 l 1
 52 404 l 1
56 400 m 1
 56 200 l 1
 56 0 l 1
 256 0 l 1
 456 0 l 1
 456 200 l 1
 456 400 l 1
 256 400 l 1
 56 400 l 1
EndSplineSet
Validated: 5
EndChar

StartChar: g
Encoding: 103 103 32
Width: 512
VWidth: 0
Flags: HW
LayerCount: 2
Fore
SplineSet
122 400 m 1
 122 0 l 1
 188 0 l 1
 188 400 l 1
 122 400 l 1
52 404 m 1
 460 404 l 1
 460 -4 l 1
 52 -4 l 1
 52 404 l 1
256 0 m 1
 324 0 l 1
 324 400 l 1
 256 400 l 1
 256 0 l 1
390 0 m 1
 456 0 l 1
 456 400 l 1
 390 400 l 1
 390 0 l 1
EndSplineSet
Validated: 1
EndChar

StartChar: h
Encoding: 104 104 33
Width: 512
VWidth: 0
Flags: HW
LayerCount: 2
Fore
SplineSet
52 404 m 1
 460 404 l 5
 460 -4 l 5
 52 -4 l 1
 52 404 l 1
56 400 m 1
 56 0 l 1
 256 0 l 1
 256 400 l 1
 56 400 l 1
EndSplineSet
Validated: 1
EndChar

StartChar: i
Encoding: 105 105 34
Width: 512
VWidth: 0
Flags: W
HStem: -4 4<56 456> 400 4<56 456>
VStem: 52 4<0 400> 456 4<0 400>
LayerCount: 2
Fore
SplineSet
136 200 m 0
 136 267 189 320 256 320 c 0
 323 320 376 267 376 200 c 0
 376 133 323 80 256 80 c 0
 189 80 136 133 136 200 c 0
52 404 m 1
 460 404 l 1
 460 -4 l 1
 52 -4 l 1
 52 404 l 1
56 400 m 1
 56 320 l 1
 56 280 l 1
 56 120 l 1
 56 80 l 1
 56 0 l 1
 136 0 l 1
 176 0 l 1
 336 0 l 1
 376 0 l 1
 456 0 l 1
 456 80 l 1
 456 120 l 1
 456 280 l 1
 456 320 l 1
 456 400 l 1
 376 400 l 1
 336 400 l 1
 176 400 l 1
 136 400 l 1
 56 400 l 1
EndSplineSet
Validated: 1
EndChar

StartChar: j
Encoding: 106 106 35
Width: 512
VWidth: 0
Flags: HW
LayerCount: 2
Fore
SplineSet
52 404 m 1
 460 404 l 1
 460 -4 l 1
 52 -4 l 1
 52 404 l 1
56 267 m 1
 56 133 l 1
 456 133 l 1
 456 267 l 1
 323 267 189 267 56 267 c 1
EndSplineSet
Validated: 1
EndChar

StartChar: k
Encoding: 107 107 36
Width: 512
VWidth: 0
Flags: W
HStem: -4 4<256 456> 400 4<256 456>
VStem: 52 204<0 400> 456 4<0 400>
LayerCount: 2
Fore
SplineSet
52 404 m 1
 460 404 l 1
 460 -4 l 1
 256 -4 l 1
 52 -4 l 1
 52 404 l 1
256 0 m 1
 389 0 323 0 456 0 c 1
 456 400 l 1
 256 400 l 1
 256 0 l 1
EndSplineSet
Validated: 1
EndChar

StartChar: l
Encoding: 108 108 37
Width: 512
VWidth: 0
Flags: HW
LayerCount: 2
Fore
SplineSet
52 404 m 1
 460 404 l 1
 460 -4 l 1
 52 -4 l 1
 52 404 l 1
256 0 m 1
 456 0 l 1
 456 200 l 1
 256 200 l 1
 256 400 l 1
 56 400 l 1
 56 200 l 1
 256 200 l 1
 256 0 l 1
EndSplineSet
Validated: 5
EndChar

StartChar: m
Encoding: 109 109 38
Width: 512
VWidth: 0
Flags: HW
LayerCount: 2
Fore
SplineSet
52 404 m 1
 460 404 l 1
 460 -4 l 1
 52 -4 l 1
 52 404 l 1
56 400 m 1
 56 350 l 1
 206 200 l 1
 56 50 l 1
 56 0 l 1
 106 0 l 1
 256 150 l 1
 406 0 l 1
 456 0 l 1
 456 50 l 1
 306 200 l 1
 456 350 l 1
 456 400 l 1
 406 400 l 1
 256 250 l 1
 106 400 l 1
 56 400 l 1
EndSplineSet
Validated: 1
EndChar

StartChar: n
Encoding: 110 110 39
Width: 512
VWidth: 0
Flags: HW
LayerCount: 2
Fore
SplineSet
256 200 m 1
 256 100 l 1
 356 100 l 1
 356 200 l 1
 256 200 l 1
156 300 m 1
 156 200 l 1
 256 200 l 1
 256 300 l 1
 156 300 l 1
52 404 m 1
 460 404 l 1
 460 -4 l 1
 52 -4 l 1
 52 404 l 1
156 300 m 1
 56 300 l 1
 56 200 l 1
 156 200 l 1
 156 100 l 1
 56 100 l 1
 56 0 l 1
 156 0 l 1
 156 100 l 1
 256 100 l 1
 256 0 l 1
 356 0 l 1
 356 100 l 1
 456 100 l 1
 456 200 l 1
 356 200 l 1
 356 300 l 1
 456 300 l 1
 456 400 l 1
 356 400 l 1
 356 300 l 1
 256 300 l 1
 256 400 l 1
 156 400 l 1
 156 300 l 1
EndSplineSet
Validated: 5
EndChar

StartChar: o
Encoding: 111 111 40
Width: 512
VWidth: 0
Flags: W
HStem: -4 4<56 456> 400 4<56 456>
VStem: 52 4<0 400> 456 4<0 400>
LayerCount: 2
Fore
SplineSet
52 404 m 1
 460 404 l 1
 460 -4 l 1
 52 -4 l 1
 52 404 l 1
56 400 m 5
 56 0 l 1
 456 0 l 5
 56 400 l 5
EndSplineSet
Validated: 1
EndChar

StartChar: p
Encoding: 112 112 41
Width: 512
VWidth: 0
Flags: HW
LayerCount: 2
Fore
SplineSet
52 404 m 1
 460 404 l 1
 460 -4 l 1
 52 -4 l 1
 52 404 l 1
189 267 m 5
 189 133 l 5
 323 133 l 5
 323 267 l 5
 189 267 l 5
EndSplineSet
Validated: 1
EndChar

StartChar: q
Encoding: 113 113 42
Width: 512
VWidth: 0
Flags: HW
LayerCount: 2
Fore
SplineSet
52 404 m 1
 460 404 l 1
 460 -4 l 1
 52 -4 l 1
 52 404 l 1
EndSplineSet
EndChar

StartChar: r
Encoding: 114 114 43
Width: 512
VWidth: 0
Flags: HW
LayerCount: 2
Fore
SplineSet
52 404 m 1
 460 404 l 1
 460 -4 l 1
 52 -4 l 1
 52 404 l 1
216 240 m 1
 56 240 l 1
 56 160 l 1
 216 160 l 1
 216 0 l 1
 296 0 l 1
 296 160 l 5
 456 160 l 1
 456 240 l 1
 296 240 l 1
 296 400 l 1
 216 400 l 1
 216 240 l 1
EndSplineSet
Validated: 1
EndChar

StartChar: s
Encoding: 115 115 44
Width: 512
VWidth: 0
Flags: HW
LayerCount: 2
Fore
SplineSet
189 267 m 1
 323 267 l 1
 323 133 l 1
 189 133 l 1
 189 267 l 1
52 404 m 1
 460 404 l 1
 460 -4 l 1
 52 -4 l 1
 52 404 l 1
56 400 m 1
 56 0 l 1
 456 0 l 1
 456 400 l 1
 56 400 l 1
EndSplineSet
Validated: 1
EndChar

StartChar: t
Encoding: 116 116 45
Width: 512
VWidth: 0
Flags: W
HStem: -4 4<56 456> 400 4<56 456>
VStem: 52 4<0 400> 456 4<0 400>
LayerCount: 2
Fore
SplineSet
52 404 m 1
 460 404 l 1
 460 -4 l 1
 52 -4 l 1
 52 404 l 1
189 400 m 1
 189 0 l 5
 323 0 l 1
 323 400 l 1
 189 400 l 1
EndSplineSet
Validated: 1
EndChar

StartChar: u
Encoding: 117 117 46
Width: 512
VWidth: 0
Flags: HW
LayerCount: 2
Fore
SplineSet
52 404 m 1
 460 404 l 1
 460 -4 l 1
 52 -4 l 1
 52 404 l 1
256 200 m 1
 56 200 l 1
 56 0 l 1
 256 0 l 1
 256 200 l 1
 456 200 l 1
 456 400 l 1
 256 400 l 1
 256 200 l 1
EndSplineSet
Validated: 5
EndChar

StartChar: v
Encoding: 118 118 47
Width: 512
VWidth: 0
Flags: HW
LayerCount: 2
Fore
SplineSet
52 404 m 1
 460 404 l 1
 460 -4 l 1
 52 -4 l 1
 52 404 l 1
456 350 m 1
 306 200 l 1
 456 50 l 1
 456 150 456 250 456 350 c 1
406 400 m 1
 306 400 206 400 106 400 c 1
 256 250 l 1
 406 400 l 1
206 200 m 1
 56 350 l 1
 56 250 56 150 56 50 c 1
 206 200 l 1
256 150 m 1
 106 0 l 1
 206 0 306 0 406 0 c 1
 256 150 l 1
EndSplineSet
Validated: 1
EndChar

StartChar: w
Encoding: 119 119 48
Width: 512
VWidth: 0
Flags: HW
LayerCount: 2
Fore
SplineSet
216 240 m 1
 296 240 l 1
 296 160 l 5
 216 160 l 1
 216 240 l 1
52 404 m 1
 460 404 l 1
 460 -4 l 1
 52 -4 l 1
 52 404 l 1
136 320 m 1
 136 80 l 1
 376 80 l 1
 376 320 l 1
 136 320 l 1
EndSplineSet
Validated: 1
EndChar

StartChar: x
Encoding: 120 120 49
Width: 512
VWidth: 0
Flags: HW
LayerCount: 2
Fore
SplineSet
56 400 m 1
 56 240 l 1
 216 240 l 1
 216 400 l 1
 56 400 l 1
52 404 m 1
 460 404 l 1
 460 -4 l 1
 52 -4 l 1
 52 404 l 1
296 0 m 1
 456 0 l 1
 456 160 l 1
 296 160 l 1
 296 0 l 1
216 0 m 1
 216 160 l 1
 56 160 l 1
 56 0 l 1
 216 0 l 1
456 240 m 1
 456 400 l 1
 296 400 l 1
 296 240 l 1
 456 240 l 1
EndSplineSet
Validated: 1
EndChar

StartChar: y
Encoding: 121 121 50
Width: 512
VWidth: 0
Flags: HW
LayerCount: 2
Fore
SplineSet
56 320 m 1
 136 400 l 1
 56 400 l 1
 56 320 l 1
56 160 m 1
 296 400 l 1
 216 400 l 1
 56 240 l 1
 56 160 l 1
56 80 m 1
 56 0 l 1
 456 400 l 1
 376 400 l 1
 56 80 l 1
52 404 m 1
 460 404 l 1
 460 -4 l 1
 52 -4 l 1
 52 404 l 1
456 160 m 1
 296 0 l 1
 376 0 l 1
 456 80 l 1
 456 160 l 1
456 240 m 1
 456 320 l 1
 136 0 l 1
 216 0 l 1
 456 240 l 1
EndSplineSet
Validated: 1
EndChar

StartChar: z
Encoding: 122 122 51
Width: 512
VWidth: 0
Flags: HW
LayerCount: 2
Fore
SplineSet
52 404 m 1
 460 404 l 1
 460 -4 l 1
 52 -4 l 1
 52 404 l 1
56 400 m 1
 256 200 l 1
 56 0 l 1
 456 0 l 1
 256 200 l 1
 456 400 l 1
 56 400 l 1
EndSplineSet
Validated: 5
EndChar

StartChar: space
Encoding: 32 32 52
Width: 512
VWidth: 0
Flags: H
LayerCount: 2
Fore
SplineSet
256 200 m 1053
EndSplineSet
Validated: 1
Comment: "To prevent +ACIA-unexistant glyph+ACIA squares, I have to add this glyph, even if its render is nothing"
EndChar

StartChar: period
Encoding: 46 46 53
Width: 512
VWidth: 0
Flags: HW
LayerCount: 2
Fore
SplineSet
52 404 m 1
 460 404 l 1
 460 -4 l 1
 52 -4 l 5
 52 404 l 1
56 400 m 1
 56 0 l 1
 456 0 l 1
 456 400 l 1
 56 400 l 1
EndSplineSet
EndChar
